<svg xmlns="http://www.w3.org/2000/svg" viewBox="0 0 256 256">
  <rect width="256" height="256" rx="48" fill="#ffffff"/>
  <svg x="38" y="87" width="180" height="84" viewBox="0 0 253 118.014" preserveAspectRatio="xMidYMid meet">
    <g transform="translate(-5597.107 -9920)">
      <path d="M330-554.1l-28.5,28.9,4.3,3.9,4.2,3.9V-485h49v-49c0-27-.1-49-.2-49C358.6-583,345.7-570,330-554.1Z" transform="translate(5487.107 10523.014)" fill="#f95901"/>
      <path d="M235.2-602c-6.3,1.5-12.6,5.5-21.2,13.5-12.2,11.3-104,102.2-104,102.9,0,.3,12.2.6,27.2.6,25.2,0,27.5-.1,31.2-2,2.6-1.3,24.9-22.6,61.6-59l57.5-56.9H263C249.5-602.8,237-602.4,235.2-602Z" transform="translate(5487.107 10523.014)" fill="#f95901"/>
      <path d="M311.3-601.5c-8.2,2.5-15,8.1-45.4,37.5-20.7,20.1-33,31.2-38.2,34.5-7.5,5-9.6,7.2-5.6,6.2,1.2-.3,1.8-.3,1.5,0s1.4,1.8,3.7,3.3c9.4,5.9,16.7,17,18.8,28.6a46.846,46.846,0,0,0,1.4,6.3c.2.2,5.5-5,11.6-11.5,6.2-6.6,32.1-32.8,57.6-58.4S363-601.9,363-602.3C363-603.6,315.9-603,311.3-601.5Z" transform="translate(5487.107 10523.014)" fill="#f95901"/>
    </g>
  </svg>
</svg>
