<?xml version="1.0" standalone="no"?>
<!DOCTYPE svg PUBLIC "-//W3C//DTD SVG 20010904//EN"
 "http://www.w3.org/TR/2001/REC-SVG-20010904/DTD/svg10.dtd">
<svg version="1.0" xmlns="http://www.w3.org/2000/svg"
 width="1024.000000pt" height="1024.000000pt" viewBox="0 0 1024.000000 1024.000000"
 preserveAspectRatio="xMidYMid meet">

<g transform="translate(0.000000,1024.000000) scale(0.100000,-0.100000)"
fill="#000000" stroke="none">
<path d="M2352 6020 c-63 -15 -126 -55 -212 -135 -122 -113 -1040 -1022 -1040
-1029 0 -3 122 -6 272 -6 252 0 275 1 312 20 26 13 249 226 616 590 l575 569
-245 0 c-135 -1 -260 -5 -278 -9z"/>
<path d="M3113 6015 c-82 -25 -150 -81 -454 -375 -207 -201 -330 -312 -382
-345 -75 -50 -96 -72 -56 -62 12 3 18 3 15 0 -3 -3 14 -18 37 -33 94 -59 167
-170 188 -286 6 -32 12 -61 14 -63 2 -2 55 50 116 115 62 66 321 328 576 584
255 256 463 469 463 473 0 13 -471 7 -517 -8z"/>
<path d="M5565 5871 c-30 -18 -155 -144 -155 -155 0 -3 27 -6 61 -6 57 0 63 2
100 40 22 22 43 40 47 40 3 0 25 -18 48 -41 40 -39 42 -40 104 -37 l64 3 -85
88 c-74 77 -88 87 -119 87 -19 0 -48 -8 -65 -19z"/>
<path d="M4000 5395 l0 -445 70 0 70 0 2 332 c3 292 5 333 19 336 9 2 84 -80
203 -223 104 -124 192 -225 197 -225 4 0 89 98 189 218 164 196 211 244 225
231 2 -3 6 -153 7 -335 l3 -329 70 0 70 0 -2 50 c-1 28 -2 227 -2 443 l-1 392
-90 0 -89 0 -69 -82 c-38 -46 -119 -146 -181 -223 -62 -77 -120 -140 -129
-140 -9 0 -83 81 -164 180 -81 99 -165 199 -186 223 l-38 42 -87 0 -87 0 0
-445z"/>
<path d="M6112 5778 l3 -63 246 -5 c255 -5 261 -6 296 -50 18 -22 16 -106 -4
-137 -31 -48 -63 -53 -313 -53 l-230 0 0 -260 0 -260 250 0 c277 0 328 7 398
53 137 92 134 323 -5 391 -23 12 -42 23 -42 26 -1 3 13 13 30 22 47 27 83 115
76 185 -8 74 -35 122 -90 160 -68 46 -121 53 -383 53 l-235 0 3 -62z m517
-442 c49 -17 74 -55 78 -118 5 -65 -20 -112 -72 -134 -41 -17 -335 -20 -366
-4 -17 10 -19 22 -19 128 0 79 4 122 12 130 17 17 320 15 367 -2z"/>
<path d="M3300 5541 l-285 -289 43 -39 42 -39 0 -162 0 -162 245 0 245 0 0
490 c0 270 -1 490 -2 490 -2 0 -131 -130 -288 -289z"/>
<path d="M6962 5818 c-6 -6 -12 -34 -12 -60 l0 -48 75 0 76 0 -3 58 -3 57 -60
3 c-38 2 -65 -2 -73 -10z"/>
<path d="M5500 5619 c-61 -12 -147 -57 -177 -94 -15 -16 -38 -55 -52 -85 -22
-48 -25 -68 -25 -155 0 -80 5 -110 22 -148 35 -79 77 -123 150 -159 65 -32 69
-33 202 -33 124 0 139 2 190 26 80 37 115 72 152 146 30 61 33 75 32 157 0
113 -21 178 -76 241 -22 25 -62 57 -88 70 -79 40 -223 55 -330 34z m244 -139
c60 -29 95 -80 105 -155 23 -165 -62 -269 -220 -269 -82 0 -149 24 -188 69
-74 85 -68 260 12 333 61 57 198 67 291 22z"/>
<path d="M8840 5619 c-66 -13 -148 -58 -186 -103 -52 -61 -74 -131 -74 -236 0
-155 49 -244 168 -302 65 -32 69 -33 202 -33 154 0 193 12 270 81 66 60 93
122 98 230 7 152 -38 254 -139 316 -78 49 -226 69 -339 47z m196 -124 c99 -29
139 -91 139 -215 0 -74 -3 -91 -27 -130 -40 -69 -93 -95 -193 -94 -157 0 -235
78 -235 232 0 77 26 141 71 174 62 47 157 59 245 33z"/>
<path d="M8005 5603 c-75 -27 -115 -60 -141 -117 -22 -49 -23 -62 -24 -291
l-1 -240 68 0 68 0 5 230 c6 263 8 271 84 300 61 24 185 17 224 -12 66 -49 67
-53 70 -299 l3 -224 70 0 69 0 0 218 c0 265 -8 304 -78 372 -61 59 -101 71
-247 76 -98 4 -129 1 -170 -13z"/>
<path d="M6950 5280 l0 -330 75 0 75 0 0 330 0 330 -75 0 -75 0 0 -330z"/>
<path d="M7305 5591 c-78 -35 -118 -117 -100 -203 17 -78 75 -118 231 -161
130 -36 174 -61 174 -102 0 -48 -24 -54 -210 -60 -95 -3 -175 -7 -177 -9 -2
-2 -6 -27 -10 -55 l-6 -52 216 3 c199 3 218 5 243 24 47 35 67 70 72 127 11
133 -40 178 -274 246 -83 24 -124 53 -124 86 0 47 29 55 212 55 l168 0 0 60 0
60 -187 0 c-161 0 -194 -3 -228 -19z"/>
</g>
</svg>
